<?xml version="1.0" encoding="UTF-8"?>
<svg enable-background="new 0 0 382.08 408.168" viewBox="0 0 382.08 408.168" xmlns="http://www.w3.org/2000/svg">
 <path d="m380.457,341.584-138.325-189.404-18.66-25.551c-.479-.655.767-5.542.406-7.134-1.936-8.548-7.986-17.802-11.527-25.855-7.461-16.967-16.39-21.277-34.935-19.678 5.53,4.962 12.665,6.029 18.354,9.99 10.326,7.189 13.872,24.666 18.771,35.631 2.56,5.729-12.334,11.163-16.858,13.991-10.47,6.543-9.825,4.841-20.896,1.822-16.1-4.391-31.94-2.316-46.617,5.796-14.839,8.202-28.873,11.671-45.679,7.937-15.292-3.398-23.516-15.037-33.143-26.2-12.148-14.085-23.784-29.231-36.899-42.346-4.134-4.133-9.65-13.087.697-11.615 6.863.977 12.595,4.531 19.631,4.531 10.853,0 22.514-12.793 31.594-17.889 14.615-8.201 29.701-12.835 45.532-17.888 9.796-3.126 20.761-10.364 17.888-22.534-4.327,5.541-4.996,15.996-13.707,17.887 3.324-4.869 4.47-9.438 5.808-15.1 2.343-9.92 3.805-13.035 14.405-6.852 13.501,7.875 21.921,20.036 26.483,34.846 2.236,7.259 9.8583,21.38549 14.2923,27.71849 5.923,8.458 11.75037,4.06619 21.85637,3.19519-21.877-10.013-28.02767-45.14168-43.58267-61.69468-12.602-13.41-34.578-25.093-41.119-2.208-1.539,5.385-1.591,12.599-5.809,16.146-6.197,5.211-20.854,6.937-29.154,10.686-13.152,5.94-25.263,13.087-37.054,21.373 .021-.03.546-.507.465-.464-10.495,11.076-38.689-11.762-42.512,9.06-2.181,11.875 18.165,28.03 24.891,35.714 10.593,12.104 21.561,27.176 32.722,37.463-4.453,3.358-14.374,10.587-14.17,17.423 .134,4.489 2.69,5.953 6.039,7.898 2.186,1.27 7.006-.86 7.346,1.858 .315,2.521.083,6.264 1.481,8.596 1.617,2.699 3.104,3.721 6.042,4.879 9.166,3.615 9.056-1.454 11.266,9.64 .442,2.217 3.369,4.902 5.577,5.344 3.022.604 6.115.579 9.19.74 3.275.172 1.292,6.13 2.541,8.668 1.466,2.978 2.769,4.543 5.923,5.809 2.598,1.041 6.458.604 9.19.82 3.223.254 1.346,5.935 2.541,8.472 1.083,2.299 2.251,4.57 4.762,5.575 1.331.532 2.829.692 4.248.77 9.962.539 4.606.823 8.414,7.826 1.46,2.686 1.688,4.375 4.415,6.272 1.205.838 3.237.928 4.63,1.038 9.803.773 4.986.742 8.612,7.79 1.308,2.543 1.388,4.235 3.949,6.155 6.532,4.9 11.975-2.81 13.329,8.016 1.446,11.553 16.368,5.175 17.335,12.66 1.685,13.047 16.396,7.889 17.539,15.217 1.918,12.288 16.73,8.929 17.54,15.217 1.65,12.812 16.799,8.358 17.656,15.216 .473,3.778.79,6.899 3.949,9.292 3.145,2.382 12.789.687 13.19,3.253 .571,3.661.556,8.586 3.537,11.384 3.072,2.883 13.775,1.519 14.083,3.912 .503,3.904.519,8.332 3.571,11.188 3.058,2.861 13.829,1.912 14.084,3.948 .573,4.581.468,8.279 3.805,11.616 3.009,3.009 13.174.694 13.655,3.68 1.86,11.539 4.364,13.285 16.094,13.903 1.732.091 3.039,8.894 6.955,10.526 4.061,1.693 6.904-.475 9.758-2.556 5.643-4.114 10.346-12.351 14.799-17.666l23.806-28.418c4.129-4.928 10.69-10.58 6-17.335"/>
 <path d="m163.012,47.479c-2.155-10.249-7.831-20.373-15.216-27.761-4.122-4.123-17.624-16.078-23.581-11.036-4.249,3.597-4.447,18.997-8.131,24.393 8.711-1.891 9.38-12.346 13.707-17.887 2.554,10.82-6.832,19.376-16.262,22.069-15.27,4.362-29.923,9.071-43.97,16.636-10.276,5.534-20.863,16.985-31.996,19.373-6.542,1.403-12.938-1.956-19.049-3.484-7.468-1.869-13.437,1.2-6.39,8.246 10.976,10.977 20.747,23.481 30.916,35.27 9.923,11.506 19.632,27.056 34.016,33.379 15.059,6.62 31.759,4.972 46.304-1.814 14.489-6.76 28.942-14.999 45.683-11.359 3.011.655 17.369,7.115 19.182,5.982l27.166-16.979c.552-.345-12.309-33.178-16.835-36.579-4.846-3.642-12.672-7.35-18.353-9.641-7.133-2.878-14.208-1.242-22.562-.45-3.651.346-4.215,9.911-7.871,13.112-9.385,8.215-26.327,5.849-37.868,11.498-11.208,5.486-17.741,22.05-32.059,18.47-12.682-3.172-16.946-16.579-10.685-27.297 12.3-21.057 48.415-35.944 72.016-32.756-21.568-3.777-70.871,7.649-76.663,33.452-3.963-18.786 38.01-34.89 51.4-36.85 17.638-2.581 39.13-3.02 39.433,20.588l22.069-2.09c-7.788-7.425-11.094-16.834-14.401-26.485" fill="#723800"/>
 <path d="m141.176,58.862c.618.174 1.205.357 1.858.465-.653-.108-1.24-.291-1.858-.465"/>
 <path d="m153.16 64.643c-6.769-33.748-94.109 1.7921-88.649 27.671 5.711-25.443 57.237-39.114 78.521-32.987-21.229-5.56-90.847 19.904-75.036 50.411 12.758 24.616 31.44-3.191 43.905-9.292 14.815-7.252 42.124-2.416 43.443-24.393-5.068-0.982-7.091 10.369-13.474 12.777-10.863 4.099-22.739 2.44-33.557 8.622-9.524 5.442-23.639 28.313-35.44 12.286-20.936-28.431 76.074-65.19 76.929-29.989 6.968 1.285 6.4741-5.697 4.3471-9.293"/>
 <path d="m52.664 74.427c1.22-1.22 1.22-1.22 0 0"/>
 <path d="m54.291,72.336c.985-.645-.184.121 0,0"/>
 <path d="m55.221 70.477"/>
 <path d="m48.251 59.559"/>
 <path d="m44.068,60.023c-.364.377-.364.377 0,0"/>
 <path d="m47.09,59.327c-.367.376-.367.376 0,0"/>
 <path d="m45.463,59.559c-.19.37-.19.37 0,0"/>
 <path d="m210.17 121.35c-9.082 4.73-17.164 11.514-26.716 9.758-9.749-1.792-17.156-5.674-27.644-4.646-19.068 1.868-33.604 16.214-52.504 17.889-20.767 1.84-32.41-8.412-45.198-22.36-13.417-14.637-26.468-29.947-39.129-45.244 10.723 3.026 22.917 3.727 30.434-6.041-14.519 10.577-22.655 1.296-37.17 1.627 6.769 12.233 20.032 23.256 29.242 34.001 13.716 16.002 25.522 35.253 47.016 40.208 23.715 5.469 39.082-12.435 60.964-16.082 11.229-1.871 21.707-1.061 32.322 3.185 9.807 3.923 20.788-6.699 28.383-12.295"/>
 <path d="m17.817,79.073v-.232 .232z" fill="#fff"/>
 <path d="m112.6 40.974c7.803-1.39 15.418-5.972 18.819-13.938 1.403-3.288 4.83-14.369-1.396-15.333-5.091-0.788-9.389 15.177-13.938 18.352 3.009 1.028 3.443 1.689 2.788 4.414 6.491-7.066 5.193-16.086 8.365-24.16 0.055 0.131-0.992 0.399-0.93 0.465 21.436 3.859 29.005 25.837 35.312 43.441 4.127 11.52 10.402 21.378 21.14 27.645 4.923 2.873 12.875 3.661 15.565 9.292-27.815-17.789-46.6-35.384-75.124-52.049" fill="#723800"/>
 <path d="m201.112,89.527c.112-.113.104-.106 0,0" fill="#fff"/>
 <path d="m188.1 99.981c-20.807-2.385-12.859 34.85 4.646 22.302-4.857 2.163-10.658 0.779-13.705-3.717 12.769 13.128 28.349-15.277 9.059-18.585"/>
 <path d="m134.207,110.667c-1.414,9.294 6.692,21.315 16.958,13.241-4.858,2.364-10.553.867-13.708-3.484 7.667,6.776 21.192.174 18.121-10.57-3.356-11.744-19.15-9.515-21.371.813"/>
 <path d="m95.41,126c-1.647,9.988 6.842,20.183 17.189,13.242-4.988,2.036-10.704.781-13.938-3.717 7.317,7.277 21.121.143 18.121-10.337-3.268-11.416-19.046-10.253-21.372.812"/>
 <path d="m114.46 129.02c-1.529 10.846-18.142 8.195-16.495-2.556 1.686-11.013 18.642-7.776 16.495 2.556" fill="#bfbfbf"/>
 <path d="m112.369,127.626c-.776,5.962-7.555,7.741-11.847,4.181 4.102,7.338 17.398-1.152 11.382-8.362 .51,1.336.406,3.754.465,4.181"/>
 <path d="m107.722,122.051c-2.309,1.652-2.39,7.448-3.02,11.383l1.393.233c.543-3.873 1.085-7.744 1.627-11.616"/>
 <path d="m153.25 113.69c-1.11 10.949-18.349 8.367-16.493-2.555 1.924-11.322 19.045-6.886 16.493 2.555" fill="#bfbfbf"/>
 <path d="m151.165,112.526c-1.04,5.943-8.101,7.898-12.081,3.717 5.602,8.062 17.658-.899 11.151-8.363 1.19,1.693.701,2.946.93,4.646"/>
 <path d="m141.176,107.415c.148,3.08 4.329,6.413 6.969,9.292l.928-.697c-2.632-2.865-5.265-5.73-7.897-8.595"/>
 <path d="m194.84 112.06c-1.657 10.845-18.315 8.173-16.728-2.554 1.627-10.99 18.747-7.826 16.728 2.554" fill="#bfbfbf"/>
 <path d="m192.748,110.667c-.818,5.952-7.656,7.787-11.848,4.181 3.601,7.065 18.106-.604 10.92-8.596 .917,1.553.787,3.62.928,4.415"/>
 <path d="m191.354,108.345c-2.831-.403-6.829,3.516-9.989,5.808l.697.929 9.292-6.737"/>
 <path d="m205.99,134.13 96.984,132.754 51.092,69.936c1.383,1.893 7.858,8.239 6.095,10.341l-27.097,32.29c4.111-6.568 24.32-30.108 19.777-36.336l-26.755-36.681c-30.753-42.162-61.506-84.325-92.26-126.488l-28.948-39.688c-3.005-4.119-2.205-3.821-7.09-.779-10.386,6.47-11.661,4.708-22.825,1.518-15.93-4.551-31.801,1.261-45.55,9.222-14.271,8.264-28.56,12.115-45.032,9.843-6.791-.937-12.217-5.113-18.476-6.417-3.891-.811-2.675-4.526-6.116-1.086l-7.823,7.823c13.547.767 12.309.671 14.067,14.083 .254,1.938 10.608,1.569 12.583,1.716 5.374.401 4.036,6.562 4.763,11.406 1.26,8.398 15.121-1.906 16.802,9.502 .689,4.673-.603,8.454 4.353,8.824 4.585.342 12.16-1.465 12.848,3.694 .262,1.961.309,11.087 2.352,11.239 2.741.204 12.849-.711 14.703,1.098 1.83,1.785 1.584,10.735 1.976,13.386 .295,2.001 12.521,1.525 14.816,1.662 2.051.123 2.249,9.442 2.54,11.414 .707,4.788 5.384,3.181 9.854,3.514 12.596.939 1.495,14.244 12.982,14.922 1.777.104 10.656-.446 10.9,1.421 .345,2.627-.034,11.606 1.757,13.385 1.812,1.799 11.993.895 14.702,1.097 2.131.159 2.504,11.187 2.838,13.451 .286,1.938 10.617,1.412 12.596,1.529 4.975.297 3.601,4.105 4.213,8.778 1.515,11.55 15.77,1.055 16.896,9.503 .262,1.961.31,11.087 2.353,11.239 2.741.204 12.849-.712 14.703,1.097 1.83,1.785 1.585,10.736 1.976,13.387 .3,2.026 12.509,1.71 14.816,1.882 2.06.153 2.244,9.269 2.539,11.239 .711,4.734 5.443,3.139 9.854,3.469 12.594.939 1.505,14.151 12.982,14.995 1.771.131 10.654-.292 10.901,1.566 .347,2.602-.016,11.396 1.755,13.167 1.796,1.795 12.006.896 14.703,1.097 2.042.152 2.17,8.469 2.489,10.519 6.999-8.399 47.683-48.107 42.146-55.699l-53.186-72.937-73.136-100.293-24.698-33.87c-6.873-9.429-4.212-7.519-14.714-2.734" fill="#dbd6ac"/>
</svg>
